PathFileType	4	(x/y/z)	S05_M20_T02
DataRate	CameraRate	NumFrames	NumMarkers	Units	OrigDataRate	OrigDataStartFrame	OrigNumFrames
240	240	11	50	mm	240	410	546
Frame#	Time	Sternum			R.Acromium			L.Acromium			Top.Head			R.ASIS			L.ASIS			R.PSIS			L.PSIS			R.Great.Tro			L.Great.Tro			R.Iliac.Crest			L.Iliac.Crest			V.Sacral			R.Thigh.Upper.Post			R.Thigh.Lower.Ant			R.Thigh.Lower.Post			R.Thigh.Upper.Ant			R.Knee.Lat			R.Knee.Med			R.Shank.Upper.Post			R.Shank.Lower.Ant			R.Shank.Lower.Post			R.Shank.Upper.Ant			R.Ankle.Lat			R.Ankle.Med			R.Heel.Upper			R.Heel.Med			R.Heel.Lat			R.Toe.Lat			R.Toe.Med			R.Toe.Tip			L.Thigh.Upper.Post			L.Thigh.Lower.Ant			L.Thigh.Lower.Post			L.Thigh.Upper.Ant			L.Knee.Lat			L.Shank.Upper.Post			L.Shank.Lower.Ant			L.Shank.Lower.Post			L.Shank.Upper.Ant			L.Ankle.Lat			L.Ankle.Med			L.Heel.Upper			L.Heel.Med			L.Heel.Lat			L.Toe.Lat			L.Toe.Med			L.Toe.Tip			Cervical.Spine			Back			
		X1	Y1	Z1	X2	Y2	Z2	X3	Y3	Z3	X4	Y4	Z4	X5	Y5	Z5	X6	Y6	Z6	X7	Y7	Z7	X8	Y8	Z8	X9	Y9	Z9	X10	Y10	Z10	X11	Y11	Z11	X12	Y12	Z12	X13	Y13	Z13	X14	Y14	Z14	X15	Y15	Z15	X16	Y16	Z16	X17	Y17	Z17	X18	Y18	Z18	X19	Y19	Z19	X20	Y20	Z20	X21	Y21	Z21	X22	Y22	Z22	X23	Y23	Z23	X24	Y24	Z24	X25	Y25	Z25	X26	Y26	Z26	X27	Y27	Z27	X28	Y28	Z28	X29	Y29	Z29	X30	Y30	Z30	X31	Y31	Z31	X32	Y32	Z32	X33	Y33	Z33	X34	Y34	Z34	X35	Y35	Z35	X36	Y36	Z36	X37	Y37	Z37	X38	Y38	Z38	X39	Y39	Z39	X40	Y40	Z40	X41	Y41	Z41	X42	Y42	Z42	X43	Y43	Z43	X44	Y44	Z44	X45	Y45	Z45	X46	Y46	Z46	X47	Y47	Z47	X48	Y48	Z48	X49	Y49	Z49	X50	Y50	Z50	

410	1.7042	1298.6	1241.6	281.67	1214.3	1513.6	418.98	1212.4	1514	88.136	1194	1800.4	204.57	1222.3	989.88	415.25	1249.2	1000.8	166.64	1031.5	1010.9	308.23	1042.8	1015.4	216.34	1135.4	907.57	469.97	1183.2	923.16	77.175	1131.3	1074	445.28	1162.8	1074.5	107.7	1022.1	978.32	271.93	1237.1	692.36	488.7	1307.4	629.96	448.09	1245.1	602.77	474.85	1295.6	718.26	460.62	1242.8	512.03	463.99	1265.3	491.87	333.98	1025.6	428.51	431.48	1005.7	340.32	422.76	963.56	388.51	407.83	1068.2	380.8	445.7	907.23	307.75	397.68	947.81	305.1	315.07	843.45	340.04	329.75	822.37	318.45	298.28	816.1	318.69	363.48	870.39	163.47	415.91	909.51	141.16	303.06	948.89	92.426	351.03	1242.7	687.45	94.653	1335.1	636.58	128.76	1273.5	599.47	116.46	1312	722.34	107.55	1308.4	518.81	127.35	1252.8	315.38	131.9	1320.5	259.99	140.89	1252.1	244.24	151.92	1317.1	329.44	126.39	1282.4	114.36	164.58	1315.6	130.84	250.07	1225.2	67.458	219.6	1237	43.562	252.39	1227.9	39.514	191.49	1408.9	38.351	135.99	1433.1	54.449	254.23	1495.6	65.799	199.73	1158.4	1551.2	256.76	1037.2	1279.5	266.06
411	1.7083	1303.4	1242.8	281.29	1219.1	1514.7	418.67	1217.4	1515.3	87.92	1199	1801.6	204.86	1227.5	991.3	414.78	1253.6	1001.8	166.09	1036.3	1011.8	308.49	1047.3	1016.4	216.54	1141.2	908.9	470.02	1187.1	923.98	77.001	1136.4	1075.4	445.1	1167.1	1075.5	107.49	1026.8	979.27	272.25	1246	694.96	488.52	1316.8	633.55	447.38	1255.2	605.48	474.64	1303.8	721.67	459.95	1254	514.59	463.54	1276.1	494.94	333.39	1037.5	429.19	430.99	1018.5	340.82	422.2	975.88	388.61	407.39	1080.6	381.9	445.1	920.39	307.25	397.18	960.82	305.41	314.39	855.73	338.88	329.52	834.93	317.04	298.04	828.84	317.03	363.26	885.72	162.53	415.11	924.88	141.19	302.08	965.18	92.976	349.8	1245.3	687.9	94.557	1337.4	636.41	128.42	1275.5	599.72	116.35	1314.9	722.34	107.21	1310	518.81	127.22	1253.8	315.52	131.62	1321.4	259.89	140.87	1252.9	244.39	151.72	1318.2	329.37	126.25	1282.6	114.42	164.6	1315.8	130.88	250.1	1225.2	67.502	219.63	1237	43.591	252.4	1227.9	39.596	191.5	1409	38.296	135.98	1433.1	54.327	254.25	1495.7	65.596	199.72	1163.3	1552.3	256.47	1041.9	1280.6	265.76
412	1.7125	1308.1	1244	280.92	1223.8	1515.9	418.38	1222.3	1516.6	87.718	1204.1	1802.8	205.17	1232.6	992.7	414.33	1258.1	1002.9	165.55	1041.1	1012.8	308.76	1051.8	1017.4	216.74	1147	910.21	470.08	1191	924.78	76.836	1141.5	1076.7	444.93	1171.3	1076.5	107.29	1031.6	980.22	272.56	1254.8	697.61	488.34	1326.2	637.17	446.64	1265.2	608.25	474.42	1312	725.11	459.26	1265.2	517.21	463.08	1286.7	498.06	332.78	1049.4	429.79	430.47	1031.3	341.22	421.62	988.19	388.58	406.92	1093	382.94	444.49	933.59	306.61	396.66	973.87	305.58	313.7	868.06	337.51	329.25	847.58	315.4	297.76	841.65	315.14	362.98	901.17	161.45	414.32	940.4	141.06	301.13	981.63	93.432	348.62	1247.9	688.36	94.465	1339.7	636.24	128.07	1277.5	599.97	116.24	1317.8	722.32	106.87	1311.6	518.81	127.08	1254.8	315.65	131.34	1322.2	259.81	140.85	1253.6	244.55	151.52	1319.2	329.31	126.1	1282.8	114.48	164.63	1315.9	130.91	250.14	1225.2	67.546	219.65	1237	43.622	252.41	1227.9	39.682	191.5	1409	38.24	135.97	1433.2	54.202	254.28	1495.8	65.39	199.72	1168.2	1553.4	256.19	1046.7	1281.7	265.48
413	1.7167	1312.8	1245.1	280.57	1228.6	1517	418.1	1227.2	1517.9	87.53	1209.1	1804	205.49	1237.7	994.07	413.89	1262.5	1003.8	165.02	1045.9	1013.7	309.04	1056.3	1018.4	216.93	1152.8	911.53	470.15	1194.9	925.58	76.678	1146.6	1078	444.78	1175.6	1077.5	107.11	1036.3	981.15	272.88	1263.6	700.31	488.14	1335.5	640.83	445.89	1275.2	611.08	474.19	1320	728.57	458.55	1276.2	519.88	462.61	1297.3	501.2	332.16	1061.2	430.3	429.93	1044.1	341.53	421.03	1000.5	388.42	406.43	1105.4	383.93	443.87	946.82	305.82	396.1	986.98	305.59	313	880.44	335.91	328.93	860.31	313.52	297.42	854.53	313.05	362.65	916.75	160.26	413.54	956.07	140.81	300.21	998.23	93.803	347.5	1250.4	688.81	94.379	1341.9	636.05	127.71	1279.5	600.23	116.13	1320.6	722.28	106.53	1313.2	518.81	126.95	1255.8	315.79	131.06	1323	259.72	140.83	1254.3	244.71	151.33	1320.2	329.25	125.95	1282.9	114.53	164.66	1316.1	130.95	250.17	1225.3	67.592	219.68	1237	43.654	252.42	1227.9	39.77	191.5	1409	38.182	135.96	1433.2	54.075	254.3	1495.8	65.18	199.72	1173	1554.5	255.92	1051.5	1282.8	265.21
414	1.7208	1317.5	1246.3	280.23	1233.4	1518.2	417.83	1232	1519.2	87.355	1214.1	1805.2	205.83	1242.7	995.4	413.45	1266.9	1004.8	164.5	1050.7	1014.7	309.31	1060.7	1019.3	217.13	1158.6	912.83	470.23	1198.8	926.37	76.528	1151.6	1079.3	444.64	1179.8	1078.5	106.94	1041	982.06	273.19	1272.3	703.05	487.93	1344.7	644.52	445.11	1285	613.97	473.97	1328	732.05	457.82	1287.2	522.6	462.14	1307.7	504.38	331.54	1073	430.73	429.36	1057	341.76	420.43	1012.8	388.15	405.91	1117.8	384.87	443.24	960.1	304.89	395.53	1000.1	305.46	312.29	892.88	334.11	328.57	873.13	311.41	297.03	867.48	310.74	362.27	932.45	158.96	412.78	971.89	140.42	299.32	1015	94.099	346.45	1252.8	689.25	94.298	1344.1	635.86	127.35	1281.4	600.48	116.02	1323.4	722.24	106.17	1314.7	518.82	126.81	1256.7	315.93	130.8	1323.8	259.65	140.79	1255	244.87	151.14	1321.1	329.19	125.8	1283.1	114.58	164.69	1316.3	130.98	250.21	1225.3	67.639	219.71	1237	43.687	252.43	1227.9	39.861	191.51	1409.1	38.124	135.94	1433.3	53.947	254.32	1495.9	64.969	199.71	1177.9	1555.6	255.67	1056.2	1283.9	264.94
415	1.725	1322.1	1247.4	279.91	1238.1	1519.3	417.58	1236.9	1520.4	87.194	1219.1	1806.3	206.18	1247.8	996.71	413.03	1271.4	1005.8	164	1055.4	1015.6	309.58	1065.1	1020.3	217.32	1164.3	914.13	470.31	1202.6	927.15	76.385	1156.6	1080.5	444.5	1184.1	1079.5	106.78	1045.7	982.95	273.5	1280.9	705.83	487.71	1353.7	648.24	444.31	1294.8	616.89	473.73	1335.9	735.54	457.06	1298	525.37	461.68	1317.9	507.57	330.92	1084.8	431.08	428.78	1069.8	341.91	419.83	1025	387.75	405.37	1130.1	385.77	442.6	973.41	303.83	394.93	1013.4	305.19	311.57	905.37	332.09	328.16	886.03	309.07	296.59	880.5	308.22	361.84	948.27	157.56	412.04	987.85	139.92	298.47	1031.9	94.329	345.48	1255.3	689.7	94.224	1346.3	635.66	126.99	1283.3	600.73	115.92	1326.1	722.19	105.82	1316.1	518.82	126.68	1257.5	316.07	130.55	1324.5	259.59	140.76	1255.6	245.04	150.97	1322	329.14	125.65	1283.3	114.63	164.72	1316.4	131.02	250.25	1225.3	67.689	219.73	1237.1	43.721	252.44	1227.8	39.954	191.51	1409.1	38.065	135.93	1433.3	53.819	254.34	1496	64.758	199.71	1182.7	1556.7	255.43	1061	1285	264.69
416	1.7292	1326.8	1248.5	279.61	1242.9	1520.3	417.33	1241.7	1521.7	87.046	1224.1	1807.5	206.54	1252.8	997.98	412.62	1275.8	1006.7	163.52	1060.1	1016.5	309.86	1069.6	1021.2	217.5	1170	915.41	470.4	1206.5	927.93	76.25	1161.7	1081.7	444.38	1188.4	1080.4	106.63	1050.4	983.83	273.8	1289.5	708.63	487.49	1362.7	651.96	443.5	1304.6	619.86	473.49	1343.7	739.03	456.29	1308.8	528.17	461.21	1328	510.77	330.31	1096.5	431.34	428.18	1082.6	341.97	419.22	1037.3	387.24	404.8	1142.4	386.61	441.97	986.76	302.63	394.31	1026.6	304.78	310.86	917.92	329.86	327.71	899.03	306.51	296.11	893.59	305.5	361.36	964.21	156.06	411.32	1004	139.3	297.66	1048.9	94.504	344.58	1257.7	690.14	94.156	1348.3	635.46	126.63	1285.1	600.98	115.83	1328.8	722.12	105.46	1317.5	518.83	126.55	1258.3	316.22	130.33	1325.2	259.53	140.71	1256.2	245.21	150.82	1322.8	329.09	125.49	1283.5	114.68	164.75	1316.6	131.05	250.29	1225.3	67.741	219.76	1237.1	43.756	252.46	1227.8	40.048	191.51	1409.1	38.005	135.91	1433.4	53.69	254.36	1496.1	64.548	199.7	1187.5	1557.7	255.21	1065.7	1286	264.45
417	1.7333	1331.5	1249.6	279.32	1247.6	1521.4	417.1	1246.6	1522.9	86.912	1229	1808.6	206.92	1257.8	999.22	412.21	1280.2	1007.7	163.05	1064.8	1017.3	310.12	1074	1022.1	217.68	1175.8	916.68	470.49	1210.3	928.7	76.123	1166.7	1082.9	444.26	1192.7	1081.3	106.49	1055.1	984.68	274.1	1298	711.46	487.25	1371.6	655.7	442.68	1314.2	622.86	473.25	1351.4	742.51	455.5	1319.4	531.01	460.75	1338	513.98	329.7	1108.1	431.52	427.56	1095.5	341.96	418.62	1049.6	386.61	404.22	1154.7	387.41	441.34	1000.2	301.31	393.68	1039.9	304.23	310.14	930.53	327.43	327.21	912.12	303.72	295.58	906.77	302.58	360.83	980.27	154.48	410.63	1020.2	138.58	296.9	1066.1	94.632	343.76	1260	690.58	94.096	1350.4	635.25	126.27	1286.9	601.23	115.74	1331.4	722.05	105.1	1318.9	518.83	126.42	1259.1	316.38	130.14	1325.9	259.49	140.66	1256.8	245.38	150.69	1323.6	329.06	125.34	1283.6	114.73	164.78	1316.7	131.08	250.34	1225.3	67.794	219.79	1237.1	43.792	252.47	1227.8	40.144	191.51	1409.2	37.946	135.9	1433.5	53.562	254.38	1496.2	64.34	199.7	1192.3	1558.7	255.01	1070.4	1287.1	264.21
418	1.7375	1336.2	1250.6	279.05	1252.4	1522.4	416.89	1251.4	1524.1	86.791	1234	1809.7	207.3	1262.8	1000.4	411.82	1284.6	1008.6	162.59	1069.6	1018.2	310.39	1078.4	1023	217.85	1181.5	917.93	470.58	1214.1	929.46	76.005	1171.6	1084.1	444.15	1196.9	1082.3	106.35	1059.7	985.52	274.39	1306.5	714.31	487	1380.4	659.44	441.84	1323.7	625.89	472.99	1359.1	745.99	454.69	1329.9	533.88	460.29	1347.9	517.19	329.1	1119.7	431.61	426.93	1108.3	341.87	418.02	1061.8	385.86	403.62	1166.9	388.16	440.72	1013.6	299.85	393.03	1053.3	303.55	309.43	943.2	324.8	326.69	925.32	300.73	295.02	920.02	299.47	360.26	996.44	152.82	409.97	1036.6	137.76	296.18	1083.4	94.723	343.01	1262.4	691.02	94.044	1352.4	635.03	125.91	1288.6	601.48	115.66	1334	721.97	104.75	1320.2	518.84	126.29	1259.8	316.54	129.98	1326.5	259.45	140.61	1257.3	245.57	150.59	1324.4	329.02	125.19	1283.8	114.78	164.82	1316.9	131.1	250.39	1225.3	67.85	219.82	1237.1	43.828	252.48	1227.7	40.24	191.51	1409.2	37.887	135.88	1433.5	53.433	254.39	1496.2	64.135	199.69	1197.1	1559.7	254.82	1075.1	1288.1	263.99
419	1.7417	1340.8	1251.7	278.79	1257.1	1523.5	416.68	1256.1	1525.2	86.684	1238.9	1810.7	207.7	1267.8	1001.6	411.43	1289.1	1009.5	162.16	1074.3	1019	310.64	1082.8	1023.9	218.01	1187.1	919.17	470.66	1217.9	930.22	75.894	1176.6	1085.2	444.05	1201.2	1083.2	106.23	1064.4	986.32	274.67	1314.9	717.16	486.75	1389.1	663.17	441.01	1333.1	628.93	472.73	1366.6	749.45	453.88	1340.3	536.77	459.83	1357.6	520.4	328.52	1131.2	431.61	426.29	1121.2	341.7	417.44	1074	384.99	403.01	1179.1	388.85	440.11	1027.1	298.27	392.38	1066.7	302.74	308.72	955.94	321.97	326.13	938.62	297.52	294.43	933.36	296.16	359.66	1012.7	151.09	409.33	1053.1	136.86	295.51	1100.9	94.788	342.34	1264.7	691.46	94	1354.4	634.82	125.56	1290.3	601.73	115.58	1336.6	721.89	104.4	1321.4	518.85	126.17	1260.5	316.71	129.85	1327.1	259.42	140.55	1257.8	245.76	150.51	1325.1	329	125.05	1284	114.82	164.85	1317	131.12	250.45	1225.3	67.908	219.85	1237.1	43.865	252.5	1227.7	40.337	191.51	1409.2	37.829	135.86	1433.6	53.305	254.41	1496.3	63.935	199.69	1201.9	1560.7	254.64	1079.8	1289	263.77
420	1.7458	1345.5	1252.7	278.55	1261.8	1524.4	416.49	1260.9	1526.4	86.59	1243.8	1811.8	208.1	1272.7	1002.7	411.06	1293.5	1010.4	161.73	1078.9	1019.8	310.89	1087.1	1024.7	218.17	1192.8	920.39	470.74	1221.7	930.96	75.791	1181.6	1086.3	443.95	1205.5	1084	106.11	1069	987.11	274.94	1323.1	720.01	486.48	1397.7	666.89	440.17	1342.4	631.98	472.46	1374.1	752.89	453.06	1350.6	539.69	459.38	1367.3	523.61	327.95	1142.7	431.53	425.65	1134.1	341.46	416.87	1086.3	384.02	402.39	1191.2	389.49	439.51	1040.6	296.58	391.72	1080.1	301.81	308.02	968.76	318.95	325.54	952.02	294.12	293.81	946.79	292.67	359.03	1029.2	149.29	408.73	1069.8	135.89	294.88	1118.5	94.834	341.74	1267	691.89	93.966	1356.3	634.6	125.22	1292	601.99	115.52	1339.1	721.79	104.06	1322.6	518.86	126.05	1261.1	316.88	129.76	1327.6	259.39	140.49	1258.2	245.95	150.46	1325.8	328.97	124.91	1284.1	114.87	164.89	1317.1	131.14	250.5	1225.3	67.966	219.88	1237.1	43.902	252.52	1227.7	40.433	191.51	1409.3	37.773	135.84	1433.6	53.178	254.43	1496.4	63.738	199.68	1206.7	1561.6	254.48	1084.6	1290	263.57
